<?xml version="1.0" encoding="UTF-8" standalone="no"?>
<svg
   width="32"
   height="32"
   viewBox="0 0 32 32"
   fill="none"
   version="1.1"
   id="svg4"
   sodipodi:docname="github.svg"
   inkscape:version="1.2.2 (732a01da63, 2022-12-09)"
   xmlns:inkscape="http://www.inkscape.org/namespaces/inkscape"
   xmlns:sodipodi="http://sodipodi.sourceforge.net/DTD/sodipodi-0.dtd"
   xmlns="http://www.w3.org/2000/svg"
   xmlns:svg="http://www.w3.org/2000/svg">
  <defs
     id="defs8" />
  <sodipodi:namedview
     id="namedview6"
     pagecolor="#505050"
     bordercolor="#eeeeee"
     borderopacity="1"
     inkscape:showpageshadow="0"
     inkscape:pageopacity="0"
     inkscape:pagecheckerboard="0"
     inkscape:deskcolor="#505050"
     showgrid="false"
     inkscape:zoom="20.85965"
     inkscape:cx="21.093355"
     inkscape:cy="17.18629"
     inkscape:window-width="1920"
     inkscape:window-height="1138"
     inkscape:window-x="-6"
     inkscape:window-y="-6"
     inkscape:window-maximized="1"
     inkscape:current-layer="svg4" />
  <path
     fill-rule="evenodd"
     clip-rule="evenodd"
     d="M16 0C7.16 0 0 7.16 0 16C0 23.08 4.58 29.06 10.94 31.18C11.74 31.32 12.04 30.84 12.04 30.42C12.04 30.04 12.02 28.78 12.02 27.44C8 28.18 6.96 26.46 6.64 25.56C6.46 25.1 5.68 23.68 5 23.3C4.44 23 3.64 22.26 4.98 22.24C6.24 22.22 7.14 23.4 7.44 23.88C8.88 26.3 11.18 25.62 12.1 25.2C12.24 24.16 12.66 23.46 13.12 23.06C9.56 22.66 5.84 21.28 5.84 15.16C5.84 13.42 6.46 11.98 7.48 10.86C7.32 10.46 6.76 8.82 7.64 6.62C7.64 6.62 8.98 6.2 12.04 8.26C13.32 7.9 14.68 7.72 16.04 7.72C17.4 7.72 18.76 7.9 20.04 8.26C23.1 6.18 24.44 6.62 24.44 6.62C25.32 8.82 24.76 10.46 24.6 10.86C25.62 11.98 26.24 13.4 26.24 15.16C26.24 21.3 22.5 22.66 18.94 23.06C19.52 23.56 20.02 24.52 20.02 26.02C20.02 28.16 20 29.88 20 30.42C20 30.84 20.3 31.34 21.1 31.18C27.42 29.06 32 23.06 32 16C32 7.16 24.84 0 16 0V0Z"
     fill="#24292E"
     id="path2" />
  <path
     style="fill:#ffffff;stroke-width:0.0479394"
     d="m 20.603176,31.161287 c -0.245305,-0.0571 -0.398359,-0.183967 -0.500491,-0.414853 -0.09113,-0.206024 -0.09437,-0.314443 -0.0832,-2.788429 0.0085,-1.884111 -0.0042,-2.655537 -0.04741,-2.878003 -0.143914,-0.741041 -0.43178,-1.407135 -0.778205,-1.800694 l -0.185762,-0.211037 0.299559,-0.03294 c 0.492666,-0.05417 1.487986,-0.257677 1.98822,-0.406512 1.291352,-0.384217 2.233484,-0.920033 3.035654,-1.726458 1.065834,-1.071488 1.662016,-2.505476 1.870847,-4.499922 0.07995,-0.763555 0.0322,-2.159374 -0.09207,-2.691759 -0.231896,-0.993416 -0.717357,-1.976535 -1.312281,-2.657538 l -0.16481,-0.188655 0.112154,-0.38577 C 24.915444,9.8937772 24.979654,9.1400397 24.914196,8.4971071 24.854791,7.9136395 24.718403,7.3019998 24.551395,6.8701181 L 24.443721,6.5916734 24.113283,6.5772805 C 23.260652,6.5401428 21.971086,7.01902 20.584912,7.8875321 L 20.02853,8.2361353 19.578184,8.1218822 C 18.35131,7.8106243 17.2006,7.6966934 15.638217,7.7317898 14.370267,7.7602726 13.618798,7.8507357 12.616528,8.0955467 L 12.049709,8.2339958 11.56186,7.9252614 C 10.93704,7.5298449 9.8537948,6.9986184 9.3002519,6.8161628 8.7852629,6.646415 8.2454015,6.5543056 7.8921525,6.5759167 L 7.6345998,6.5916734 7.5396989,6.8313706 C 7.3796545,7.2356051 7.2274679,7.9072818 7.1681711,8.4711105 7.0995304,9.1237839 7.1607151,9.8693914 7.3312203,10.45807 l 0.1139156,0.393299 -0.2229884,0.276581 c -0.5211597,0.646414 -0.9584024,1.493562 -1.1732162,2.273082 -0.2947921,1.069743 -0.2971632,2.620981 -0.00624,4.080078 0.3513841,1.762316 1.1432244,3.096228 2.394648,4.033957 0.4399729,0.329685 1.4488882,0.828952 2.1056937,1.042013 0.535227,0.173623 1.682345,0.420946 2.222041,0.479081 l 0.300821,0.0324 -0.158649,0.175606 c -0.357404,0.395604 -0.644468,1.003752 -0.771791,1.635045 l -0.06257,0.31025 -0.27149,0.10516 c -0.554881,0.21493 -0.893556,0.276657 -1.518385,0.276746 -0.5305387,9.5e-5 -0.6432122,-0.01513 -0.9827577,-0.132654 C 8.5716937,25.186556 8.0302253,24.728746 7.4777726,23.897812 6.929472,23.073124 6.2006366,22.467891 5.5459617,22.293618 5.2821414,22.223388 4.6683066,22.222558 4.4574635,22.292118 4.0436333,22.428694 4.2329711,22.836092 4.9137929,23.274 c 0.6003615,0.386156 1.0750722,1.025926 1.6873361,2.274031 0.3438288,0.700898 0.4215368,0.822152 0.7078546,1.104521 0.5604246,0.552695 1.346467,0.870398 2.3770034,0.96074 0.54474,0.04775 1.466145,0.0028 1.994225,-0.09739 0.135204,-0.02564 0.264454,-0.04662 0.287222,-0.04662 0.02277,0 0.04136,0.706508 0.04132,1.570017 -9.6e-5,1.75565 -0.0067,1.79532 -0.335502,2.01659 -0.145921,0.09819 -0.211522,0.110382 -0.503364,0.09352 -0.444733,-0.02567 -1.033353,-0.24813 -2.2536344,-0.85169 C 7.2835728,29.49018 6.0637484,28.616632 4.7658235,27.325482 3.7322544,26.297309 3.0836204,25.490455 2.3976455,24.379639 0.37665607,21.107 -0.39244528,17.17868 0.24377844,13.378384 1.2931191,7.1104558 5.9479996,2.0521518 12.083856,0.5121654 c 1.374776,-0.34504325 2.451851,-0.47214459 3.975857,-0.469175 1.398828,0.0027257 2.474181,0.12905824 3.752247,0.44081422 4.148423,1.01191588 7.80155,3.73737288 9.977429,7.44377378 0.942326,1.605163 1.631014,3.4771736 1.942347,5.2797376 0.31421,1.819225 0.304352,3.9972 -0.02593,5.728764 -0.608906,3.192309 -2.126351,6.06767 -4.402735,8.342609 -1.610665,1.609642 -3.411691,2.79285 -5.490625,3.607137 -0.708541,0.277526 -0.957136,0.334153 -1.20927,0.275461 z"
     id="path183" />
</svg>
